<svg width="128" height="32" viewBox="0 0 128 32" fill="none" xmlns="http://www.w3.org/2000/svg">
<path fill-rule="evenodd" clip-rule="evenodd" d="M4 0C1.79102 0 0 1.79089 0 4V28C0 30.2091 1.79102 32 4 32H124C126.209 32 128 30.2091 128 28V4C128 1.79089 126.209 0 124 0H4ZM7.78418 5.0697C7.81641 5.05066 7.85107 5.03528 7.88721 5.0238C7.93604 5.00818 7.98779 5 8.04004 5H16.6763C16.7817 5 16.8833 5.03308 16.9673 5.09241C17.0176 5.12805 17.062 5.1731 17.0972 5.22607L19.5664 8.9353C19.6226 9.01917 19.6523 9.11768 19.6523 9.21851V23.8636C19.6523 23.994 19.6025 24.1194 19.5132 24.214L17.0356 26.8411C16.9399 26.9425 16.8076 27 16.668 27H8.03467C7.90283 27 7.77734 26.9486 7.68408 26.859C7.65869 26.8344 7.63574 26.8069 7.61523 26.7769L5.0874 23.035C5.05371 22.9851 5.02979 22.9299 5.01514 22.8719C5.00977 22.8495 5.00586 22.8267 5.00293 22.8036C5.00098 22.7855 5 22.7673 5 22.749V8.1106C5 7.97742 5.05176 7.84949 5.14453 7.75427L7.67822 5.15295C7.70947 5.12036 7.74512 5.09241 7.78418 5.0697ZM8.80859 8.91858C8.72461 9.01221 8.67822 9.13354 8.67822 9.25928V16.5406C8.67822 16.9988 9.2334 17.2239 9.5498 16.894L15.8325 10.3424C15.9233 10.2474 15.9741 10.1208 15.9741 9.98901V9.92236C15.9741 9.82092 15.9443 9.72168 15.8872 9.63757L15.2432 8.67725C15.1953 8.60559 15.1309 8.54858 15.0566 8.51001C14.9854 8.4729 14.9053 8.45276 14.8228 8.45276H9.45117C9.30762 8.45276 9.17041 8.51404 9.07471 8.62134L8.80859 8.91858ZM8.67822 22.2135C8.67822 22.2386 8.68213 22.2635 8.68896 22.2872C8.69678 22.3132 8.70898 22.338 8.7251 22.3605L9.40869 23.332C9.50342 23.467 9.65771 23.5472 9.82178 23.5472H15.1792C15.2729 23.5472 15.3643 23.521 15.4429 23.4728C15.4805 23.4497 15.5156 23.4215 15.5464 23.3887L15.835 23.0835C15.8911 23.0239 15.9321 22.952 15.9546 22.8744C15.9673 22.8287 15.9741 22.7811 15.9741 22.7328V15.738C15.9741 15.2793 15.418 15.0544 15.1021 15.3854L8.74854 22.0372C8.70361 22.0846 8.67822 22.1478 8.67822 22.2135ZM35.752 10.6731C35.752 10.3918 35.9785 10.1638 36.2583 10.1638H38.9233C39.2031 10.1638 39.4302 10.3918 39.4302 10.6731V14.0811C39.4302 14.2142 39.3784 14.3422 39.2861 14.4374L36.8623 16.925C36.7725 17.0175 36.7236 17.1371 36.7183 17.259C36.7134 17.3652 36.7417 17.4733 36.8047 17.5667L39.3433 21.3402C39.3999 21.4244 39.4302 21.5238 39.4302 21.6255V26.4907C39.4302 26.5887 39.4023 26.6803 39.355 26.7579C39.2656 26.9032 39.1055 27 38.9233 27H36.2583C35.9785 27 35.752 26.772 35.752 26.4907V22.2985C35.752 22.2543 35.7461 22.2106 35.7349 22.1683C35.7202 22.1129 35.6963 22.0599 35.6646 22.012L34.4136 20.1644C34.3188 20.025 34.1621 19.9417 33.9941 19.9417H31.8027C31.665 19.9417 31.5332 19.9979 31.438 20.0975L28.5371 23.1243C28.4463 23.2191 28.3955 23.3458 28.3955 23.4775V26.4907C28.3955 26.772 28.1689 27 27.8892 27H25.2241C24.9443 27 24.7173 26.772 24.7173 26.4907V22.4072C24.7173 22.276 24.7676 22.1498 24.8579 22.0551L27.4292 19.3561C27.4443 19.3397 27.4531 19.3179 27.4531 19.2952C27.4531 19.2783 27.4482 19.2618 27.439 19.2477L24.7964 15.0864C24.7744 15.0507 24.7563 15.0125 24.7432 14.9727C24.7358 14.951 24.73 14.929 24.7261 14.9066L24.7192 14.8566L24.7173 14.8124V10.6731C24.7173 10.5419 24.7666 10.4222 24.8477 10.332C24.9404 10.2288 25.0747 10.1638 25.2241 10.1638H27.8892C27.9189 10.1638 27.9487 10.1665 27.9775 10.1716C28.0176 10.1787 28.0566 10.1906 28.0933 10.2067C28.126 10.2212 28.1572 10.2393 28.186 10.2603C28.2153 10.2816 28.2422 10.3062 28.2666 10.3333C28.2886 10.3585 28.3086 10.3861 28.3262 10.4155C28.3359 10.432 28.3447 10.4491 28.3525 10.4668L28.3657 10.5004C28.376 10.5288 28.3833 10.5583 28.3887 10.5889C28.3931 10.6162 28.3955 10.6444 28.3955 10.6731V14.1346C28.3955 14.2352 28.4253 14.3335 28.4805 14.4171L29.7046 16.2621C29.7983 16.4038 29.9565 16.4889 30.1255 16.4889H32.2852C32.4224 16.4889 32.5532 16.4332 32.6489 16.3347L35.6084 13.276C35.6577 13.2251 35.6953 13.1649 35.7197 13.0996C35.7295 13.073 35.7373 13.0457 35.7427 13.0177C35.749 12.9861 35.752 12.9536 35.752 12.9209V10.6731ZM49.3789 5C48.2803 5 47.3892 5.89539 47.3892 7V25C47.3892 26.1046 48.2803 27 49.3789 27H121.01C122.109 27 123 26.1046 123 25V7C123 5.89539 122.109 5 121.01 5H49.3789ZM52.5718 10.1073C52.6621 10.04 52.7754 10 52.8989 10H59.5269C59.7012 10 59.8647 10.0814 59.9648 10.2183L60.7246 11.2554C60.7881 11.342 60.8223 11.4454 60.8223 11.5514V13.0159C60.8223 13.1487 60.7686 13.2764 60.6729 13.3722L59.1235 14.921C59.1162 14.9281 59.1143 14.937 59.1152 14.9453L59.1172 14.9529L59.1221 14.9607C59.126 14.9656 59.1318 14.9694 59.1387 14.9707L59.146 14.9714C59.1514 14.9714 59.1562 14.9727 59.1606 14.975L59.1689 14.9811L59.1719 14.9845L60.8901 17.412C60.9023 17.4293 60.9136 17.4474 60.9229 17.4659L60.9375 17.4954L60.9473 17.5183C60.9707 17.5764 60.9824 17.6383 60.9824 17.7012V20.7188C60.9824 20.8971 60.8862 21.0627 60.728 21.1564L59.4346 21.9233C59.3843 21.9535 59.3281 21.975 59.271 21.9874L59.2559 21.9905L59.2178 21.9962L59.1929 21.9987L59.1533 22H52.8989C52.8301 22 52.7642 21.9875 52.7041 21.9648C52.6523 21.9454 52.6045 21.9186 52.5625 21.8856C52.5386 21.8668 52.5161 21.8462 52.4956 21.8237C52.4658 21.7904 52.4395 21.7532 52.4189 21.713C52.3833 21.6444 52.3638 21.5673 52.3638 21.4857V10.5143C52.3638 10.3486 52.4453 10.2014 52.5718 10.1073ZM55.0581 11.92C54.7622 11.92 54.5229 12.1503 54.5229 12.4343V14.4572C54.5229 14.6575 54.6421 14.8311 54.8164 14.916L54.8398 14.9269L54.8657 14.9371L54.9087 14.9509C54.9355 14.9585 54.9639 14.9641 54.9927 14.9675C55.0142 14.9701 55.0361 14.9714 55.0581 14.9714H56.0596C56.1304 14.9714 56.2002 14.9579 56.2642 14.9324L56.3003 14.9164L56.3398 14.8953C56.3667 14.8795 56.3921 14.8613 56.416 14.8409L56.4478 14.8113L58.5083 12.7269C58.5503 12.6841 58.584 12.6344 58.6069 12.5808C58.6318 12.5233 58.6445 12.4612 58.6445 12.3978C58.6445 12.1339 58.4224 11.92 58.1475 11.92H55.0581ZM55.0581 16.8915C54.9478 16.8915 54.8457 16.9235 54.7603 16.9783C54.6172 17.0706 54.5229 17.2275 54.5229 17.4058V19.5486C54.5229 19.7214 54.6113 19.8743 54.7476 19.9675C54.835 20.0276 54.9419 20.0629 55.0581 20.0629H58.3057C58.5034 20.0629 58.6763 19.96 58.7686 19.807C58.8145 19.7311 58.8408 19.6428 58.8408 19.5486V18.0524C58.8408 17.9978 58.8315 17.9438 58.8145 17.8926C58.8081 17.8739 58.8008 17.8556 58.7925 17.8376L58.769 17.7944L58.752 17.7684L58.7393 17.7507L58.2524 17.1041C58.1514 16.9705 57.9897 16.8915 57.8184 16.8915H55.0581ZM63.7651 10.5143C63.7651 10.2302 64.0049 10 64.3008 10H70.0317C70.2085 10 70.374 10.0837 70.4736 10.2239L72.3081 12.8002C72.3232 12.8213 72.3369 12.8434 72.3486 12.8663C72.3584 12.8859 72.3672 12.906 72.3745 12.9265C72.3931 12.9791 72.4019 13.0345 72.4019 13.0906V14.7289C72.4019 14.8624 72.3477 14.9907 72.251 15.0867L71.064 16.2646C70.8867 16.4399 70.8628 16.7104 71.0059 16.9121L72.3086 18.7489C72.3696 18.8344 72.4019 18.9353 72.4019 19.0386V21.4857C72.4019 21.6097 72.3564 21.7235 72.2803 21.8124C72.1821 21.927 72.0332 22 71.8667 22H70.7783C70.7251 22 70.6743 21.9927 70.626 21.979C70.5225 21.9496 70.4321 21.891 70.3652 21.8131C70.3208 21.7615 70.2871 21.7013 70.2661 21.6355C70.251 21.5881 70.2427 21.5378 70.2427 21.4857V19.399C70.2427 19.2954 70.2104 19.1942 70.1489 19.1086L68.7783 17.1838C68.6787 17.0438 68.5132 16.96 68.3364 16.96H67.0225C66.9229 16.96 66.8252 16.9331 66.7402 16.8824C66.3848 16.6698 65.9243 16.9154 65.9243 17.318V21.4857C65.9243 21.7698 65.6846 22 65.3887 22H64.3008C64.0049 22 63.7651 21.7698 63.7651 21.4857V10.5143ZM66.4595 11.9371C66.1641 11.9371 65.9243 12.1674 65.9243 12.4514V14.5085C65.9243 14.7926 66.1641 15.0228 66.4595 15.0228H69.3213C69.3555 15.0228 69.3892 15.0197 69.4224 15.0135C69.4507 15.0083 69.4785 15.0009 69.5054 14.9913C69.5796 14.9652 69.6479 14.9232 69.7046 14.8676L70.0908 14.4869C70.1885 14.3909 70.2427 14.2621 70.2427 14.1279V13.504C70.2427 13.399 70.2095 13.2966 70.147 13.2104L69.3853 12.1578C69.2852 12.0197 69.1211 11.9371 68.9458 11.9371H66.4595ZM75.2017 10.3833C75.209 10.3577 75.2183 10.3329 75.229 10.309C75.2627 10.2335 75.3154 10.1675 75.3804 10.116C75.4272 10.0795 75.48 10.0503 75.5376 10.0304C75.5625 10.0217 75.5884 10.0148 75.6147 10.0098C75.6484 10.0034 75.6836 10 75.7192 10H83.2856C83.5815 10 83.8208 10.2302 83.8208 10.5143V11.4229C83.8208 11.7069 83.5815 11.9371 83.2856 11.9371H81.1089C80.813 11.9371 80.5732 12.1674 80.5732 12.4514V19.5486C80.5732 19.8326 80.813 20.0629 81.1089 20.0629H83.2856C83.3403 20.0629 83.3936 20.0707 83.4429 20.0853C83.5024 20.103 83.5581 20.1305 83.6069 20.1659C83.6851 20.2224 83.7471 20.2991 83.7837 20.3879C83.8076 20.4465 83.8208 20.5104 83.8208 20.5771V21.4857C83.8208 21.7698 83.5815 22 83.2856 22H75.7192C75.4238 22 75.1841 21.7698 75.1841 21.4857V20.5771C75.1841 20.2931 75.4238 20.0629 75.7192 20.0629H77.8789C78.1743 20.0629 78.4141 19.8326 78.4141 19.5486V12.4514C78.4141 12.3083 78.3535 12.1788 78.2549 12.0856C78.1582 11.9938 78.0254 11.9371 77.8789 11.9371H75.7192C75.4238 11.9371 75.1841 11.7069 75.1841 11.4229V10.5143C75.1841 10.469 75.1899 10.425 75.2017 10.3833ZM86.8018 10.115C86.8354 10.0885 86.873 10.0659 86.9126 10.048C86.9419 10.0349 86.9722 10.0243 87.0039 10.0165C87.0469 10.0057 87.0923 10 87.1387 10H92.3853C92.4937 10 92.5981 10.0317 92.6855 10.0889C92.7417 10.1255 92.791 10.1725 92.8296 10.2281L95.1499 13.5558C95.209 13.6405 95.2407 13.7401 95.2407 13.842V20.1648C95.2407 20.2267 95.229 20.2876 95.2065 20.3446C95.1938 20.377 95.1777 20.4081 95.1592 20.4375C95.1499 20.4517 95.1401 20.4653 95.1294 20.4785C95.1177 20.4932 95.105 20.5072 95.0913 20.5206L93.7744 21.8414C93.7188 21.8976 93.6504 21.9402 93.5767 21.967C93.5171 21.9886 93.4531 22 93.3882 22H87.1387C86.8433 22 86.6035 21.7698 86.6035 21.4857V10.5143C86.6035 10.4736 86.6084 10.4341 86.6177 10.3962C86.6221 10.3778 86.627 10.3597 86.6333 10.342C86.6426 10.3176 86.6538 10.2941 86.6665 10.2716C86.6748 10.257 86.6841 10.2427 86.6938 10.2289L86.7241 10.1888L86.7402 10.1709L86.7754 10.1371L86.8018 10.115ZM89.2979 11.9371C89.0024 11.9371 88.7627 12.1674 88.7627 12.4514V19.5657C88.7627 19.7618 88.877 19.9323 89.0454 20.0189C89.1206 20.0579 89.2065 20.08 89.2979 20.08H92.5029C92.6445 20.08 92.7808 20.0259 92.8813 19.9293L92.9243 19.8878C92.9565 19.8571 92.9839 19.8226 93.0068 19.7858C93.0195 19.7649 93.0308 19.7432 93.0405 19.7208C93.0493 19.7006 93.0571 19.6798 93.063 19.6586C93.0747 19.6151 93.0811 19.5699 93.0811 19.5242V14.2383C93.0811 14.1351 93.0488 14.0344 92.9883 13.9491L91.7241 12.1622C91.624 12.0215 91.4585 11.9371 91.2808 11.9371H89.2979ZM99.5068 10.1584C99.542 10.1228 99.5825 10.0927 99.626 10.0685C99.707 10.024 99.7988 10 99.8936 10H104.696C104.766 10 104.834 10.0131 104.896 10.0375C104.995 10.0757 105.081 10.1417 105.141 10.229L106.204 11.76C106.345 11.963 106.318 12.233 106.14 12.4066L105.479 13.0492C105.337 13.1871 105.138 13.2299 104.96 13.1848C104.84 13.1543 104.729 13.0834 104.653 12.9741L104.088 12.165C104.042 12.0978 103.98 12.0432 103.909 12.0044C103.829 11.9609 103.738 11.9371 103.644 11.9371H100.734C100.586 11.9371 100.446 11.9952 100.345 12.0978L100.329 12.1141C100.235 12.2096 100.183 12.3362 100.183 12.4678V19.2437C100.183 19.342 100.211 19.4384 100.267 19.5211L100.471 19.8262C100.486 19.8495 100.503 19.8713 100.522 19.8916L100.542 19.912L100.565 19.9325L100.6 19.9603C100.691 20.026 100.804 20.0629 100.921 20.0629H103.948C104.09 20.0629 104.219 20.0094 104.315 19.9222C104.344 19.896 104.37 19.8667 104.392 19.835C104.45 19.7532 104.483 19.6547 104.483 19.5486V17.08C104.483 16.8955 104.381 16.7336 104.23 16.6429C104.148 16.594 104.051 16.5657 103.948 16.5657H102.502C102.207 16.5657 101.967 16.3354 101.967 16.0514V15.16C101.967 14.9714 102.073 14.8066 102.23 14.7172C102.31 14.6718 102.403 14.6458 102.502 14.6458H105.443C105.624 14.6458 105.792 14.7328 105.891 14.8773L106.536 15.8199C106.594 15.9038 106.625 16.0021 106.625 16.1025V21.4857C106.625 21.536 106.617 21.5846 106.603 21.6305C106.585 21.6884 106.557 21.7419 106.521 21.7894C106.423 21.9171 106.266 22 106.089 22H99.8442C99.791 22 99.7383 21.9923 99.6885 21.9777C99.668 21.9717 99.6479 21.9646 99.6284 21.9564C99.5361 21.9176 99.4561 21.8539 99.3989 21.771L98.1128 19.9181C98.0542 19.8336 98.0229 19.7344 98.0229 19.6328V11.8524C98.0229 11.7197 98.0767 11.5923 98.1719 11.4965L99.5068 10.1584ZM111.141 10.0206C111.189 10.0071 111.24 10 111.291 10H117.49C117.618 10 117.735 10.043 117.828 10.1147C117.948 10.2091 118.025 10.353 118.025 10.5143V11.4229C118.025 11.7069 117.786 11.9371 117.49 11.9371H112.125C111.974 11.9371 111.829 11.999 111.728 12.1074L111.703 12.1333C111.677 12.1611 111.655 12.1914 111.636 12.2235C111.617 12.2557 111.601 12.2897 111.589 12.325L111.579 12.364C111.575 12.38 111.572 12.3962 111.57 12.4126L111.567 12.4381L111.566 12.4773V14.4572C111.566 14.5568 111.595 14.6498 111.646 14.7285C111.741 14.8744 111.909 14.9714 112.101 14.9714H115.153C115.25 14.9714 115.34 14.9962 115.419 15.0394C115.58 15.1282 115.688 15.2948 115.688 15.4857V16.3943C115.688 16.6783 115.448 16.9086 115.153 16.9086H112.101C111.938 16.9086 111.791 16.979 111.693 17.09C111.614 17.1797 111.566 17.2959 111.566 17.4229V19.1543C111.566 19.222 111.58 19.2888 111.606 19.3507C111.619 19.3809 111.635 19.4099 111.654 19.4374L111.925 19.8315C112.024 19.976 112.192 20.0629 112.372 20.0629H117.49C117.534 20.0629 117.577 20.068 117.618 20.0776C117.703 20.0977 117.781 20.1375 117.845 20.1917C117.896 20.2352 117.939 20.2883 117.97 20.3479C117.989 20.384 118.003 20.4225 118.012 20.4629C118.021 20.4996 118.025 20.5378 118.025 20.5771V21.4857C118.025 21.5616 118.009 21.6337 117.978 21.6985C117.951 21.7544 117.915 21.8051 117.87 21.8481C117.799 21.9169 117.708 21.9664 117.606 21.988C117.569 21.9958 117.53 22 117.49 22H111.298C111.12 22 110.953 21.9147 110.854 21.7725L109.498 19.8329C109.478 19.8051 109.461 19.7755 109.448 19.7449C109.421 19.6823 109.407 19.6147 109.407 19.5461V11.8384C109.407 11.8141 109.409 11.7899 109.412 11.766C109.422 11.6985 109.446 11.6337 109.482 11.5753C109.503 11.5405 109.529 11.5081 109.56 11.4786L110.909 10.1545C110.974 10.0909 111.054 10.0452 111.141 10.0206Z" fill="black"/>
</svg>
