<svg width="128" height="79" viewBox="0 0 128 79" fill="none" xmlns="http://www.w3.org/2000/svg">
<path fill-rule="evenodd" clip-rule="evenodd" d="M0 45.6526C0 43.3289 1.88377 41.4451 4.20753 41.4451H8.0751C8.11392 41.4451 8.15216 41.4353 8.18617 41.4166C25.1812 32.0677 38.9862 18.0455 47.8125 1.0816C48.5629 -0.360534 50.6914 -0.360534 51.4417 1.0816C54.8584 7.64822 59.021 13.774 63.8259 19.3587C63.9175 19.4652 64.0825 19.4652 64.1741 19.3587C68.979 13.774 73.1417 7.64822 76.5583 1.0816C77.3086 -0.360534 79.4372 -0.360534 80.1875 1.0816C89.0138 18.0455 102.819 32.0677 119.814 41.4165C119.848 41.4353 119.886 41.4451 119.925 41.4451H123.792C126.116 41.4451 128 43.3289 128 45.6526V45.8888C128 46.0195 127.825 46.0621 127.765 45.946C127.27 44.9884 126.282 44.3869 125.205 44.3869H2.7954C1.71764 44.3869 0.729995 44.9884 0.235436 45.946C0.175474 46.0621 0 46.0195 0 45.8888V45.6526ZM112.759 41.4451C112.991 41.4451 113.078 41.1395 112.882 41.0156C98.8396 32.1568 87.2173 20.0754 79.0831 5.80571C78.7709 5.25808 77.9749 5.25804 77.6627 5.80567C74.4085 11.5145 70.596 16.8731 66.2936 21.8152C66.2162 21.9042 66.218 22.0372 66.2983 22.1236C73.4009 29.7678 81.7556 36.2938 91.0681 41.4166C91.1021 41.4353 91.1403 41.4451 91.1791 41.4451H112.759ZM63.8311 24.5414C63.9225 24.4438 64.0775 24.4438 64.1689 24.5414C70.054 30.8218 76.7613 36.3632 84.136 41.0157C84.3323 41.1396 84.2449 41.4451 84.0128 41.4451H43.9873C43.7551 41.4451 43.6677 41.1396 43.8641 41.0157C51.2387 36.3632 57.946 30.8218 63.8311 24.5414ZM61.7064 21.8152C61.7838 21.9042 61.782 22.0372 61.7017 22.1236C54.5991 29.7678 46.2445 36.2938 36.9319 41.4166C36.8979 41.4353 36.8597 41.4451 36.8209 41.4451H15.2415C15.0093 41.4451 14.9222 41.1395 15.1185 41.0156C29.1604 32.1568 40.7827 20.0754 48.9169 5.80571C49.2291 5.25809 50.0251 5.25804 50.3373 5.80567C53.5915 11.5145 57.404 16.8731 61.7064 21.8152Z" fill="white"/>
<path fill-rule="evenodd" clip-rule="evenodd" d="M4 46.4019C1.79102 46.4019 0 48.1927 0 50.4019V74.4019C0 76.611 1.79102 78.4019 4 78.4019H124C126.209 78.4019 128 76.611 128 74.4019V50.4019C128 48.1927 126.209 46.4019 124 46.4019H4ZM7.78418 51.4716C7.81641 51.4525 7.85107 51.4371 7.88721 51.4257C7.93604 51.41 7.98779 51.4019 8.04004 51.4019H16.6763C16.7817 51.4019 16.8833 51.4349 16.9673 51.4943C17.0176 51.5299 17.062 51.575 17.0972 51.6279L19.5664 55.3372C19.6226 55.421 19.6523 55.5195 19.6523 55.6204V70.2655C19.6523 70.3959 19.6025 70.5212 19.5132 70.6158L17.0356 73.2429C16.9399 73.3444 16.8076 73.4019 16.668 73.4019H8.03467C7.90283 73.4019 7.77734 73.3505 7.68408 73.2609C7.65869 73.2362 7.63574 73.2087 7.61523 73.1787L5.0874 69.4369C5.05371 69.387 5.02979 69.3318 5.01514 69.2738C5.00977 69.2513 5.00586 69.2285 5.00293 69.2054C5.00098 69.1874 5 69.1692 5 69.1509V54.5125C5 54.3793 5.05176 54.2513 5.14453 54.1561L7.67822 51.5548C7.70947 51.5222 7.74512 51.4943 7.78418 51.4716ZM8.80859 55.3204C8.72461 55.4141 8.67822 55.5354 8.67822 55.6611V62.9425C8.67822 63.4006 9.2334 63.6257 9.5498 63.2959L15.8325 56.7443C15.9233 56.6493 15.9741 56.5227 15.9741 56.3909V56.3242C15.9741 56.2228 15.9443 56.1235 15.8872 56.0394L15.2432 55.0791C15.1953 55.0074 15.1309 54.9504 15.0566 54.9119C14.9854 54.8748 14.9053 54.8546 14.8228 54.8546H9.45117C9.30762 54.8546 9.17041 54.9159 9.07471 55.0232L8.80859 55.3204ZM8.67822 68.6154C8.67822 68.6405 8.68213 68.6654 8.68896 68.6891C8.69678 68.7151 8.70898 68.7399 8.7251 68.7623L9.40869 69.7339C9.50342 69.8689 9.65771 69.9491 9.82178 69.9491H15.1792C15.2729 69.9491 15.3643 69.9229 15.4429 69.8746C15.4805 69.8516 15.5156 69.8234 15.5464 69.7905L15.835 69.4854C15.8911 69.4258 15.9321 69.3539 15.9546 69.2762C15.9673 69.2306 15.9741 69.183 15.9741 69.1346V62.1399C15.9741 61.6812 15.418 61.4563 15.1021 61.7872L8.74854 68.4391C8.70361 68.4865 8.67822 68.5497 8.67822 68.6154ZM35.752 57.075C35.752 56.7937 35.9785 56.5657 36.2583 56.5657H38.9233C39.2031 56.5657 39.4302 56.7937 39.4302 57.075V60.4829C39.4302 60.6161 39.3784 60.744 39.2861 60.8392L36.8623 63.3269C36.7725 63.4193 36.7236 63.5389 36.7183 63.6609C36.7134 63.7671 36.7417 63.8751 36.8047 63.9685L39.3433 67.7421C39.3999 67.8263 39.4302 67.9257 39.4302 68.0273V72.8926C39.4302 72.9906 39.4023 73.0822 39.355 73.1598C39.2656 73.3051 39.1055 73.4019 38.9233 73.4019H36.2583C35.9785 73.4019 35.752 73.1738 35.752 72.8926V68.7003C35.752 68.6561 35.7461 68.6124 35.7349 68.5702C35.7202 68.5148 35.6963 68.4618 35.6646 68.4138L34.4136 66.5663C34.3188 66.4269 34.1621 66.3435 33.9941 66.3435H31.8027C31.665 66.3435 31.5332 66.3998 31.438 66.4994L28.5371 69.5261C28.4463 69.621 28.3955 69.7477 28.3955 69.8794V72.8926C28.3955 73.1738 28.1689 73.4019 27.8892 73.4019H25.2241C24.9443 73.4019 24.7173 73.1738 24.7173 72.8926V68.8091C24.7173 68.6779 24.7676 68.5516 24.8579 68.4569L27.4292 65.7579C27.4443 65.7416 27.4531 65.7197 27.4531 65.697C27.4531 65.6802 27.4482 65.6637 27.439 65.6495L24.7964 61.4883C24.7744 61.4525 24.7563 61.4143 24.7432 61.3745C24.7358 61.3529 24.73 61.3308 24.7261 61.3085L24.7192 61.2584L24.7173 61.2142V57.075C24.7173 56.9437 24.7666 56.8241 24.8477 56.7339C24.9404 56.6306 25.0747 56.5657 25.2241 56.5657H27.8892C27.9189 56.5657 27.9487 56.5684 27.9775 56.5735C28.0176 56.5806 28.0566 56.5924 28.0933 56.6085C28.126 56.623 28.1572 56.6411 28.186 56.6621C28.2153 56.6835 28.2422 56.708 28.2666 56.7351C28.2886 56.7604 28.3086 56.788 28.3262 56.8174C28.3359 56.8339 28.3447 56.851 28.3525 56.8687L28.3657 56.9022C28.376 56.9307 28.3833 56.9602 28.3887 56.9907C28.3931 57.0181 28.3955 57.0463 28.3955 57.075V60.5365C28.3955 60.6371 28.4253 60.7354 28.4805 60.819L29.7046 62.6639C29.7983 62.8057 29.9565 62.8907 30.1255 62.8907H32.2852C32.4224 62.8907 32.5532 62.8351 32.6489 62.7366L35.6084 59.6779C35.6577 59.627 35.6953 59.5668 35.7197 59.5015C35.7295 59.4749 35.7373 59.4475 35.7427 59.4196C35.749 59.3879 35.752 59.3555 35.752 59.3228V57.075ZM49.3789 51.4019C48.2803 51.4019 47.3892 52.2972 47.3892 53.4019V71.4019C47.3892 72.5065 48.2803 73.4019 49.3789 73.4019H121.01C122.109 73.4019 123 72.5065 123 71.4019V53.4019C123 52.2972 122.109 51.4019 121.01 51.4019H49.3789ZM52.5718 56.5092C52.6621 56.4419 52.7754 56.4019 52.8989 56.4019H59.5269C59.7012 56.4019 59.8647 56.4833 59.9648 56.6201L60.7246 57.6572C60.7881 57.7439 60.8223 57.8473 60.8223 57.9532V59.4177C60.8223 59.5505 60.7686 59.6782 60.6729 59.774L59.1235 61.3229C59.1162 61.33 59.1143 61.3389 59.1152 61.3472L59.1172 61.3547L59.1221 61.3625C59.126 61.3674 59.1318 61.3712 59.1387 61.3726L59.146 61.3733C59.1514 61.3733 59.1562 61.3745 59.1606 61.3768L59.1689 61.3829L59.1719 61.3864L60.8901 63.8138C60.9023 63.8312 60.9136 63.8492 60.9229 63.8678L60.9375 63.8972L60.9473 63.9202C60.9707 63.9783 60.9824 64.0402 60.9824 64.103V67.1206C60.9824 67.299 60.8862 67.4646 60.728 67.5582L59.4346 68.3252C59.3843 68.3553 59.3281 68.3768 59.271 68.3893L59.2559 68.3923L59.2178 68.3981L59.1929 68.4005L59.1533 68.4019H52.8989C52.8301 68.4019 52.7642 68.3894 52.7041 68.3667C52.6523 68.3473 52.6045 68.3204 52.5625 68.2875C52.5386 68.2687 52.5161 68.248 52.4956 68.2256C52.4658 68.1923 52.4395 68.155 52.4189 68.1149C52.3833 68.0463 52.3638 67.9691 52.3638 67.8876V56.9161C52.3638 56.7505 52.4453 56.6033 52.5718 56.5092ZM55.0581 58.3219C54.7622 58.3219 54.5229 58.5521 54.5229 58.8362V60.859C54.5229 61.0593 54.6421 61.2329 54.8164 61.3179L54.8398 61.3287L54.8657 61.339L54.9087 61.3528C54.9355 61.3604 54.9639 61.366 54.9927 61.3694C55.0142 61.3719 55.0361 61.3733 55.0581 61.3733H56.0596C56.1304 61.3733 56.2002 61.3597 56.2642 61.3342L56.3003 61.3182L56.3398 61.2971C56.3667 61.2814 56.3921 61.2632 56.416 61.2428L56.4478 61.2131L58.5083 59.1288C58.5503 59.0859 58.584 59.0363 58.6069 58.9827C58.6318 58.9252 58.6445 58.863 58.6445 58.7997C58.6445 58.5358 58.4224 58.3219 58.1475 58.3219H55.0581ZM55.0581 63.2933C54.9478 63.2933 54.8457 63.3253 54.7603 63.3801C54.6172 63.4724 54.5229 63.6294 54.5229 63.8076V65.9504C54.5229 66.1233 54.6113 66.2761 54.7476 66.3694C54.835 66.4294 54.9419 66.4647 55.0581 66.4647H58.3057C58.5034 66.4647 58.6763 66.3618 58.7686 66.2089C58.8145 66.1329 58.8408 66.0447 58.8408 65.9504V64.4542C58.8408 64.3997 58.8315 64.3457 58.8145 64.2944C58.8081 64.2758 58.8008 64.2574 58.7925 64.2395L58.769 64.1963L58.752 64.1703L58.7393 64.1526L58.2524 63.506C58.1514 63.3723 57.9897 63.2933 57.8184 63.2933H55.0581ZM63.7651 56.9161C63.7651 56.6321 64.0049 56.4019 64.3008 56.4019H70.0317C70.2085 56.4019 70.374 56.4856 70.4736 56.6257L72.3081 59.202C72.3232 59.2231 72.3369 59.2452 72.3486 59.2682C72.3584 59.2877 72.3672 59.3079 72.3745 59.3284C72.3931 59.381 72.4019 59.4364 72.4019 59.4924V61.1307C72.4019 61.2643 72.3477 61.3926 72.251 61.4885L71.064 62.6665C70.8867 62.8418 70.8628 63.1123 71.0059 63.314L72.3086 65.1508C72.3696 65.2362 72.4019 65.3372 72.4019 65.4404V67.8876C72.4019 68.0116 72.3564 68.1254 72.2803 68.2142C72.1821 68.3289 72.0332 68.4019 71.8667 68.4019H70.7783C70.7251 68.4019 70.6743 68.3945 70.626 68.3809C70.5225 68.3514 70.4321 68.2928 70.3652 68.215C70.3208 68.1633 70.2871 68.1031 70.2661 68.0374C70.251 67.99 70.2427 67.9397 70.2427 67.8876V65.8009C70.2427 65.6973 70.2104 65.5961 70.1489 65.5105L68.7783 63.5857C68.6787 63.4457 68.5132 63.3618 68.3364 63.3618H67.0225C66.9229 63.3618 66.8252 63.335 66.7402 63.2843C66.3848 63.0717 65.9243 63.3173 65.9243 63.7198V67.8876C65.9243 68.1716 65.6846 68.4019 65.3887 68.4019H64.3008C64.0049 68.4019 63.7651 68.1716 63.7651 67.8876V56.9161ZM66.4595 58.339C66.1641 58.339 65.9243 58.5692 65.9243 58.8533V60.9104C65.9243 61.1945 66.1641 61.4247 66.4595 61.4247H69.3213C69.3555 61.4247 69.3892 61.4215 69.4224 61.4154C69.4507 61.4102 69.4785 61.4027 69.5054 61.3932C69.5796 61.3671 69.6479 61.3251 69.7046 61.2694L70.0908 60.8888C70.1885 60.7927 70.2427 60.6639 70.2427 60.5298V59.9059C70.2427 59.8009 70.2095 59.6985 70.147 59.6123L69.3853 58.5597C69.2852 58.4215 69.1211 58.339 68.9458 58.339H66.4595ZM75.2017 56.7852C75.209 56.7595 75.2183 56.7347 75.229 56.7108C75.2627 56.6354 75.3154 56.5693 75.3804 56.5178C75.4272 56.4813 75.48 56.4521 75.5376 56.4323C75.5625 56.4236 75.5884 56.4166 75.6147 56.4116C75.6484 56.4053 75.6836 56.4019 75.7192 56.4019H83.2856C83.5815 56.4019 83.8208 56.6321 83.8208 56.9161V57.8247C83.8208 58.1088 83.5815 58.339 83.2856 58.339H81.1089C80.813 58.339 80.5732 58.5692 80.5732 58.8533V65.9504C80.5732 66.2345 80.813 66.4647 81.1089 66.4647H83.2856C83.3403 66.4647 83.3936 66.4725 83.4429 66.4872C83.5024 66.5049 83.5581 66.5323 83.6069 66.5677C83.6851 66.6243 83.7471 66.7009 83.7837 66.7898C83.8076 66.8484 83.8208 66.9122 83.8208 66.979V67.8876C83.8208 68.1716 83.5815 68.4019 83.2856 68.4019H75.7192C75.4238 68.4019 75.1841 68.1716 75.1841 67.8876V66.979C75.1841 66.6949 75.4238 66.4647 75.7192 66.4647H77.8789C78.1743 66.4647 78.4141 66.2345 78.4141 65.9504V58.8533C78.4141 58.7102 78.3535 58.5807 78.2549 58.4874C78.1582 58.3956 78.0254 58.339 77.8789 58.339H75.7192C75.4238 58.339 75.1841 58.1088 75.1841 57.8247V56.9161C75.1841 56.8708 75.1899 56.8269 75.2017 56.7852ZM86.8018 56.5168C86.8354 56.4904 86.873 56.4678 86.9126 56.4498C86.9419 56.4368 86.9722 56.4261 87.0039 56.4183C87.0469 56.4076 87.0923 56.4019 87.1387 56.4019H92.3853C92.4937 56.4019 92.5981 56.4336 92.6855 56.4907C92.7417 56.5273 92.791 56.5743 92.8296 56.63L95.1499 59.9576C95.209 60.0424 95.2407 60.142 95.2407 60.2439V66.5667C95.2407 66.6285 95.229 66.6895 95.2065 66.7465C95.1938 66.7788 95.1777 66.8099 95.1592 66.8394C95.1499 66.8535 95.1401 66.8672 95.1294 66.8804C95.1177 66.895 95.105 66.9091 95.0913 66.9225L93.7744 68.2433C93.7188 68.2994 93.6504 68.342 93.5767 68.3689C93.5171 68.3905 93.4531 68.4019 93.3882 68.4019H87.1387C86.8433 68.4019 86.6035 68.1716 86.6035 67.8876V56.9161C86.6035 56.8755 86.6084 56.8359 86.6177 56.7981C86.6221 56.7797 86.627 56.7616 86.6333 56.7439C86.6426 56.7195 86.6538 56.6959 86.6665 56.6735C86.6748 56.6588 86.6841 56.6445 86.6938 56.6307L86.7241 56.5907L86.7402 56.5728L86.7754 56.5389L86.8018 56.5168ZM89.2979 58.339C89.0024 58.339 88.7627 58.5692 88.7627 58.8533V65.9675C88.7627 66.1637 88.877 66.3341 89.0454 66.4208C89.1206 66.4597 89.2065 66.4818 89.2979 66.4818H92.5029C92.6445 66.4818 92.7808 66.4277 92.8813 66.3312L92.9243 66.2897C92.9565 66.2589 92.9839 66.2245 93.0068 66.1876C93.0195 66.1667 93.0308 66.145 93.0405 66.1227C93.0493 66.1024 93.0571 66.0817 93.063 66.0604C93.0747 66.017 93.0811 65.9718 93.0811 65.926V60.6401C93.0811 60.537 93.0488 60.4363 92.9883 60.351L91.7241 58.5641C91.624 58.4233 91.4585 58.339 91.2808 58.339H89.2979ZM99.5068 56.5603C99.542 56.5247 99.5825 56.4945 99.626 56.4703C99.707 56.4259 99.7988 56.4019 99.8936 56.4019H104.696C104.766 56.4019 104.834 56.4149 104.896 56.4393C104.995 56.4775 105.081 56.5436 105.141 56.6309L106.204 58.1619C106.345 58.3649 106.318 58.6349 106.14 58.8085L105.479 59.451C105.337 59.589 105.138 59.6317 104.96 59.5867C104.84 59.5562 104.729 59.4852 104.653 59.376L104.088 58.5669C104.042 58.4996 103.98 58.4451 103.909 58.4062C103.829 58.3628 103.738 58.339 103.644 58.339H100.734C100.586 58.339 100.446 58.3971 100.345 58.4996L100.329 58.516C100.235 58.6115 100.183 58.738 100.183 58.8696V65.6455C100.183 65.7439 100.211 65.8402 100.267 65.923L100.471 66.228C100.486 66.2513 100.503 66.2732 100.522 66.2935L100.542 66.3138L100.565 66.3344L100.6 66.3622C100.691 66.4279 100.804 66.4647 100.921 66.4647H103.948C104.09 66.4647 104.219 66.4113 104.315 66.3241C104.344 66.2979 104.37 66.2686 104.392 66.2368C104.45 66.155 104.483 66.0565 104.483 65.9504V63.4818C104.483 63.2974 104.381 63.1355 104.23 63.0448C104.148 62.9958 104.051 62.9675 103.948 62.9675H102.502C102.207 62.9675 101.967 62.7373 101.967 62.4532V61.5619C101.967 61.3733 102.073 61.2085 102.23 61.119C102.31 61.0736 102.403 61.0476 102.502 61.0476H105.443C105.624 61.0476 105.792 61.1346 105.891 61.2792L106.536 62.2218C106.594 62.3057 106.625 62.4039 106.625 62.5044V67.8876C106.625 67.9379 106.617 67.9865 106.603 68.0323C106.585 68.0902 106.557 68.1438 106.521 68.1913C106.423 68.319 106.266 68.4019 106.089 68.4019H99.8442C99.791 68.4019 99.7383 68.3942 99.6885 68.3795C99.668 68.3735 99.6479 68.3665 99.6284 68.3583C99.5361 68.3195 99.4561 68.2557 99.3989 68.1729L98.1128 66.3199C98.0542 66.2355 98.0229 66.1362 98.0229 66.0347V58.2543C98.0229 58.1216 98.0767 57.9941 98.1719 57.8983L99.5068 56.5603ZM111.141 56.4225C111.189 56.4089 111.24 56.4019 111.291 56.4019H117.49C117.618 56.4019 117.735 56.4448 117.828 56.5166C117.948 56.611 118.025 56.7549 118.025 56.9161V57.8247C118.025 58.1088 117.786 58.339 117.49 58.339H112.125C111.974 58.339 111.829 58.4009 111.728 58.5093L111.703 58.5352C111.677 58.563 111.655 58.5933 111.636 58.6254C111.617 58.6576 111.601 58.6915 111.589 58.7268L111.579 58.7659C111.575 58.7819 111.572 58.7981 111.57 58.8145L111.567 58.84L111.566 58.8792V60.859C111.566 60.9586 111.595 61.0516 111.646 61.1304C111.741 61.2762 111.909 61.3733 112.101 61.3733H115.153C115.25 61.3733 115.34 61.3981 115.419 61.4413C115.58 61.53 115.688 61.6967 115.688 61.8876V62.7961C115.688 63.0802 115.448 63.3104 115.153 63.3104H112.101C111.938 63.3104 111.791 63.3809 111.693 63.4918C111.614 63.5815 111.566 63.6978 111.566 63.8247V65.5562C111.566 65.6239 111.58 65.6907 111.606 65.7526C111.619 65.7827 111.635 65.8118 111.654 65.8392L111.925 66.2334C112.024 66.3778 112.192 66.4647 112.372 66.4647H117.49C117.534 66.4647 117.577 66.4698 117.618 66.4795C117.703 66.4995 117.781 66.5393 117.845 66.5935C117.896 66.6371 117.939 66.6902 117.97 66.7498C117.989 66.7859 118.003 66.8243 118.012 66.8647C118.021 66.9015 118.025 66.9397 118.025 66.979V67.8876C118.025 67.9635 118.009 68.0355 117.978 68.1003C117.951 68.1562 117.915 68.2069 117.87 68.25C117.799 68.3187 117.708 68.3683 117.606 68.3899C117.569 68.3977 117.53 68.4019 117.49 68.4019H111.298C111.12 68.4019 110.953 68.3165 110.854 68.1743L109.498 66.2347C109.478 66.2069 109.461 66.1774 109.448 66.1467C109.421 66.0841 109.407 66.0166 109.407 65.948V58.2402C109.407 58.2159 109.409 58.1918 109.412 58.1678C109.422 58.1003 109.446 58.0355 109.482 57.9772C109.503 57.9424 109.529 57.9099 109.56 57.8805L110.909 56.5564C110.974 56.4928 111.054 56.447 111.141 56.4225Z" fill="white"/>
</svg>
