<svg width="86" height="86" viewBox="0 0 86 86" fill="none" xmlns="http://www.w3.org/2000/svg">
<path fill-rule="evenodd" clip-rule="evenodd" d="M5 0C2.23877 0 0 2.23853 0 5V81C0 83.7615 2.23877 86 5 86H81C83.7612 86 86 83.7615 86 81V5C86 2.23853 83.7612 0 81 0H5ZM13.4448 7.31299C13.6387 7.11279 13.9038 7 14.1807 7H31.7388C31.7979 7 31.8564 7.00513 31.9136 7.01514C32.189 7.06323 32.4365 7.22327 32.5947 7.4624L37.6157 15.0496C37.729 15.2209 37.7896 15.4226 37.7896 15.6289V45.5847C37.7896 45.8514 37.6885 46.1079 37.5068 46.3014L32.4702 51.6749C32.3711 51.7804 32.2529 51.8625 32.123 51.918C31.9976 51.9716 31.8618 52 31.7227 52H14.1699C13.8286 52 13.5093 51.8291 13.3179 51.5436L8.17773 43.8899C8.11768 43.8003 8.07227 43.7021 8.04199 43.5994C8.01416 43.5043 8 43.405 8 43.3047V13.3625C8 13.0901 8.10547 12.8285 8.29395 12.6338L13.4448 7.31299ZM15.7427 15.0154C15.6509 15.1187 15.5811 15.2385 15.5361 15.3676C15.498 15.4774 15.4785 15.5939 15.4785 15.7123V30.6057C15.4785 31.5431 16.6069 32.0035 17.25 31.3286L30.0229 17.9276C30.208 17.7335 30.311 17.4744 30.311 17.2047V17.0685C30.311 16.8608 30.25 16.6581 30.1353 16.486L28.8252 14.5217C28.7393 14.3928 28.6274 14.2871 28.499 14.2097C28.3413 14.1147 28.1597 14.0625 27.9712 14.0625H17.0493C16.7573 14.0625 16.479 14.1879 16.2837 14.4073L15.7427 15.0154ZM15.4785 42.2095C15.4785 42.3171 15.5112 42.4222 15.5728 42.5101L16.9629 44.4973C17.0073 44.5607 17.0576 44.6182 17.1133 44.6691C17.1509 44.7034 17.1909 44.7347 17.2329 44.7629C17.2861 44.7987 17.3423 44.8293 17.4009 44.8545C17.5264 44.9086 17.6631 44.9375 17.8037 44.9375H28.6948C28.9771 44.9375 29.2471 44.8203 29.4414 44.6133L30.0278 43.989C30.21 43.7954 30.311 43.5386 30.311 43.2716V28.9642C30.311 28.0259 29.1807 27.5659 28.5381 28.2428L15.6216 41.8489C15.5298 41.9458 15.4785 42.0751 15.4785 42.2095ZM70.5215 18.6041C70.5215 18.0288 70.9829 17.5624 71.5518 17.5624H76.9697C77.5391 17.5624 78 18.0288 78 18.6041V25.5748C78 25.8473 77.8945 26.109 77.7061 26.3036L72.7788 31.3922C72.4365 31.7458 72.3872 32.2944 72.6616 32.7045L77.8232 40.4231C77.8398 40.4479 77.8555 40.4734 77.8696 40.4994L77.8828 40.5237C77.8955 40.5482 77.9072 40.5732 77.918 40.5986C77.9717 40.7271 78 40.8657 78 41.0066V50.9583C78 51.5336 77.5391 51.9999 76.9697 51.9999H71.5518C70.9829 51.9999 70.5215 51.5336 70.5215 50.9583V42.3833C70.5215 42.1742 70.4595 41.97 70.3433 41.7972L67.7998 38.0181C67.6909 37.856 67.5405 37.7308 67.3687 37.6531C67.2383 37.5941 67.0952 37.5624 66.9482 37.5624H62.4927C62.2129 37.5624 61.9448 37.6776 61.7505 37.8815L55.8535 44.0724C55.6685 44.2665 55.5649 44.5255 55.5649 44.795V50.9583C55.5649 51.5336 55.104 51.9999 54.5352 51.9999H49.1167C48.5479 51.9999 48.0869 51.5336 48.0869 50.9583V42.6057C48.0869 42.3373 48.1895 42.0792 48.373 41.8853L53.5996 36.3647C53.6313 36.3312 53.6494 36.2865 53.6494 36.24C53.6494 36.2203 53.6465 36.2009 53.6401 36.1825C53.6353 36.1687 53.6289 36.1554 53.6211 36.1431L48.2485 27.6312C48.207 27.5656 48.1733 27.4957 48.1475 27.4232C48.1313 27.3778 48.1187 27.3313 48.1089 27.2841C48.0947 27.2142 48.0869 27.1428 48.0869 27.0708V18.6041C48.0869 18.0288 48.5479 17.5624 49.1167 17.5624H54.5352C55.104 17.5624 55.5649 18.0288 55.5649 18.6041V25.6846C55.5649 25.8901 55.6255 26.0912 55.7383 26.2623L58.2261 30.036C58.417 30.3258 58.7388 30.4999 59.083 30.4999H63.4736C63.752 30.4999 64.0181 30.3862 64.2119 30.1846L70.23 23.9282C70.417 23.7338 70.5215 23.4731 70.5215 23.2019V18.6041ZM7 59C5.89551 59 5 59.8954 5 61V79C5 80.1046 5.89551 81 7 81H79C80.1045 81 81 80.1046 81 79V61C81 59.8954 80.1045 59 79 59H7ZM10 64.5143C10 64.2302 10.2407 64 10.5381 64H17.2002C17.3755 64 17.5396 64.0814 17.6401 64.2183L18.4038 65.2554C18.4678 65.342 18.502 65.4454 18.502 65.5514V67.0159C18.502 67.1487 18.4482 67.2764 18.3521 67.3722L16.7949 68.921C16.7876 68.9281 16.7852 68.937 16.7866 68.9453L16.7886 68.9529L16.7935 68.9607C16.7974 68.9656 16.8032 68.9694 16.8101 68.9707L16.8174 68.9714C16.8228 68.9714 16.8281 68.9728 16.8325 68.9752C16.8369 68.9774 16.8403 68.9806 16.8433 68.9845L18.5703 71.412C18.5825 71.4293 18.5938 71.4474 18.6035 71.4659L18.6182 71.4954L18.6279 71.5183C18.6377 71.5426 18.6455 71.5675 18.6514 71.5929L18.6587 71.6324C18.6616 71.6552 18.6631 71.6781 18.6631 71.7012V74.7188C18.6631 74.7865 18.6494 74.8524 18.6235 74.9132C18.5811 75.0125 18.5063 75.0983 18.4077 75.1564L17.1074 75.9233C17.0742 75.9429 17.0391 75.9589 17.0024 75.9709C16.9829 75.9775 16.9629 75.983 16.9429 75.9874C16.9043 75.9957 16.8647 76 16.8247 76H10.5381C10.376 76 10.231 75.9318 10.1328 75.8237C10.0503 75.7334 10 75.6151 10 75.4857V64.5143ZM12.3252 66.0732C12.2295 66.1661 12.1704 66.2936 12.1704 66.4343V68.4572C12.1704 68.5076 12.1782 68.5563 12.1924 68.6023C12.2344 68.7393 12.334 68.8524 12.4653 68.916C12.4814 68.9238 12.498 68.9309 12.5151 68.9371L12.5581 68.9509C12.606 68.9642 12.6562 68.9714 12.7085 68.9714H13.7148C13.7563 68.9714 13.7974 68.9668 13.8374 68.958C13.8789 68.9487 13.9189 68.9347 13.957 68.9164L13.9966 68.8953C14.0361 68.8722 14.0728 68.844 14.105 68.8113L16.1763 66.7269C16.2188 66.6841 16.2524 66.6344 16.2754 66.5808C16.2832 66.5634 16.2896 66.5454 16.2949 66.5271C16.3022 66.5026 16.3076 66.4773 16.3105 66.4518C16.3125 66.434 16.3135 66.4159 16.3135 66.3978C16.3135 66.1339 16.0898 65.92 15.8135 65.92H12.7085C12.5586 65.92 12.4229 65.9786 12.3252 66.0732ZM12.7085 70.8915C12.4111 70.8915 12.1704 71.1217 12.1704 71.4058V73.5486C12.1704 73.7214 12.2593 73.8743 12.396 73.9675C12.4414 73.9984 12.4917 74.0227 12.5459 74.0391C12.5972 74.0546 12.6519 74.0629 12.7085 74.0629H15.9727C16.27 74.0629 16.5107 73.8326 16.5107 73.5486V72.0524C16.5107 72.0179 16.5068 71.9838 16.4995 71.9503C16.4956 71.9308 16.4902 71.9115 16.4839 71.8926C16.4775 71.8739 16.4702 71.8556 16.4619 71.8376L16.4385 71.7944L16.4214 71.7684L16.4087 71.7507L15.9189 71.1041C15.8174 70.9705 15.6553 70.8915 15.4829 70.8915H12.7085ZM21.4604 64.5143C21.4604 64.2302 21.7012 64 21.9985 64H27.7593C27.9365 64 28.103 64.0837 28.2031 64.2239L30.0474 66.8002C30.0757 66.8394 30.0977 66.882 30.1138 66.9265C30.1323 66.9791 30.1416 67.0345 30.1416 67.0906V68.7289C30.1416 68.8624 30.0869 68.9907 29.9897 69.0867L28.7964 70.2646C28.6187 70.4399 28.5942 70.7104 28.7383 70.9121L30.0479 72.7489C30.1089 72.8344 30.1416 72.9353 30.1416 73.0386V75.4857C30.1416 75.6135 30.0928 75.7303 30.0122 75.8203C29.9136 75.9303 29.7671 76 29.6035 76H28.5093C28.4756 76 28.4429 75.9971 28.4106 75.9915C28.3921 75.9882 28.374 75.984 28.3564 75.979C28.2524 75.9496 28.1616 75.891 28.0942 75.8131C28.0498 75.7615 28.0156 75.7013 27.9946 75.6355C27.9795 75.5881 27.9712 75.5378 27.9712 75.4857V73.399C27.9712 73.2954 27.9385 73.1942 27.877 73.1086L26.499 71.1838C26.3989 71.0438 26.2329 70.96 26.0552 70.96H24.7344C24.6865 70.96 24.6392 70.9537 24.5928 70.9418C24.543 70.9287 24.4951 70.9088 24.4507 70.8824C24.0933 70.6698 23.6304 70.9154 23.6304 71.318V75.4857C23.6304 75.7698 23.3896 76 23.0923 76H21.9985C21.7012 76 21.4604 75.7698 21.4604 75.4857V64.5143ZM24.1685 65.9371C23.8716 65.9371 23.6304 66.1674 23.6304 66.4514V68.5085C23.6304 68.7926 23.8716 69.0228 24.1685 69.0228H27.0449C27.0859 69.0228 27.127 69.0183 27.1665 69.0095C27.2656 68.9875 27.3574 68.9387 27.4302 68.8676L27.8184 68.4869C27.9165 68.3909 27.9712 68.2621 27.9712 68.1279V67.504C27.9712 67.399 27.9375 67.2966 27.875 67.2104L27.1094 66.1578C27.0088 66.0197 26.8438 65.9371 26.6675 65.9371H24.1685ZM32.9517 64.3998C32.959 64.3683 32.9697 64.3379 32.9829 64.309C33.0171 64.2335 33.0698 64.1675 33.1353 64.116C33.1821 64.0795 33.2354 64.0503 33.2935 64.0304C33.3184 64.0217 33.3442 64.0148 33.3706 64.0098C33.4048 64.0034 33.4399 64 33.4761 64H41.0811C41.3784 64 41.6191 64.2302 41.6191 64.5143V65.4229C41.6191 65.7069 41.3784 65.9371 41.0811 65.9371H38.8931C38.7832 65.9371 38.6812 65.9686 38.5957 66.0227C38.4507 66.1149 38.355 66.2725 38.355 66.4514V73.5486C38.355 73.8326 38.5957 74.0629 38.8931 74.0629H41.0811C41.2026 74.0629 41.3145 74.1012 41.4043 74.1659C41.5347 74.2598 41.6191 74.4091 41.6191 74.5771V75.4857C41.6191 75.6344 41.5532 75.7683 41.4478 75.8623C41.3516 75.9478 41.2227 76 41.0811 76H33.4761C33.1787 76 32.938 75.7698 32.938 75.4857V74.5771C32.938 74.2931 33.1787 74.0629 33.4761 74.0629H35.6465C35.9434 74.0629 36.1846 73.8326 36.1846 73.5486V66.4514C36.1846 66.3059 36.1211 66.1744 36.0195 66.0809C35.9229 65.9919 35.791 65.9371 35.6465 65.9371H33.4761C33.3315 65.9371 33.2007 65.8829 33.104 65.7947C33.002 65.701 32.938 65.5691 32.938 65.4229V64.5143C32.938 64.475 32.9429 64.4366 32.9517 64.3998ZM44.6152 64.115C44.6494 64.0885 44.687 64.0659 44.7271 64.048C44.7959 64.0172 44.873 64 44.9541 64H50.2275C50.4067 64 50.5747 64.0856 50.6743 64.2281L53.0063 67.5558C53.0659 67.6405 53.0977 67.7401 53.0977 67.842V74.1648C53.0977 74.2267 53.0859 74.2876 53.0635 74.3446C53.0508 74.377 53.0347 74.4081 53.0156 74.4375L52.9946 74.4669L52.9844 74.4803C52.9731 74.4943 52.9609 74.5077 52.9478 74.5206L51.624 75.8414C51.5679 75.8976 51.4995 75.9402 51.4253 75.967C51.3652 75.9886 51.3013 76 51.2358 76H44.9541C44.6572 76 44.416 75.7698 44.416 75.4857V64.5143L44.4185 64.4647C44.4209 64.4414 44.4248 64.4185 44.4302 64.3962C44.4365 64.3698 44.4453 64.344 44.4561 64.3192L44.4692 64.2908L44.4795 64.2716C44.5 64.2352 44.5249 64.2014 44.5537 64.1709C44.5728 64.1508 44.5933 64.1321 44.6152 64.115ZM47.1245 65.9371C46.9546 65.9371 46.8032 66.0123 46.7046 66.1299C46.6309 66.2179 46.5864 66.3297 46.5864 66.4514V73.5657C46.5864 73.8497 46.8276 74.08 47.1245 74.08H50.3457C50.4883 74.08 50.625 74.0259 50.7261 73.9293L50.7695 73.8878C50.7808 73.8772 50.7915 73.8661 50.8013 73.8546C50.8203 73.8329 50.8374 73.8098 50.8525 73.7858C50.8662 73.7632 50.8784 73.7396 50.8887 73.7155C50.8965 73.6969 50.9033 73.6779 50.9087 73.6586C50.9209 73.6151 50.9272 73.5699 50.9272 73.5242V68.2383C50.9272 68.1351 50.8945 68.0344 50.834 67.9491L49.563 66.1622C49.5439 66.1357 49.5225 66.1112 49.499 66.0889C49.4746 66.0651 49.4478 66.0438 49.4189 66.0253C49.3311 65.9686 49.2266 65.9371 49.1177 65.9371H47.1245ZM57.3857 64.1584C57.4214 64.1228 57.4619 64.0927 57.5059 64.0685C57.5869 64.024 57.6792 64 57.7744 64H62.6016C62.7817 64 62.9497 64.0859 63.0493 64.229L64.1172 65.76C64.2588 65.963 64.2319 66.233 64.0527 66.4066L63.3887 67.0492C63.2461 67.1871 63.0464 67.2299 62.8677 67.1848C62.8169 67.172 62.7676 67.1521 62.7222 67.1252C62.6592 67.088 62.603 67.0375 62.5586 66.9741L61.9912 66.165C61.9429 66.0957 61.8779 66.0398 61.8037 66.0007C61.7251 65.9596 61.6362 65.9371 61.5444 65.9371H58.6191C58.4712 65.9371 58.3301 65.9952 58.2285 66.0978L58.2124 66.1141C58.1699 66.1567 58.1362 66.2056 58.1118 66.2584C58.0811 66.3237 58.0649 66.395 58.0649 66.4678V73.2437C58.0649 73.342 58.0942 73.4384 58.1499 73.5211L58.3545 73.8262C58.3687 73.847 58.3838 73.8667 58.4004 73.885L58.4263 73.912C58.4448 73.9294 58.4644 73.9456 58.4849 73.9603C58.5234 73.9878 58.5654 74.0101 58.6099 74.027C58.6719 74.0504 58.7388 74.0629 58.8076 74.0629H61.8496C61.9927 74.0629 62.1226 74.0094 62.2192 73.9222C62.3228 73.8285 62.3877 73.6958 62.3877 73.5486V71.08C62.3877 70.796 62.1465 70.5657 61.8496 70.5657H60.3965C60.0996 70.5657 59.8584 70.3354 59.8584 70.0514V69.16C59.8584 68.876 60.0996 68.6458 60.3965 68.6458H63.353C63.5342 68.6458 63.7031 68.7328 63.8027 68.8773L64.4512 69.8199C64.478 69.8589 64.499 69.9009 64.5142 69.9448C64.5312 69.9955 64.54 70.0487 64.54 70.1025V75.4857C64.54 75.7698 64.2988 76 64.002 76H57.7251C57.6196 76 57.5186 75.9706 57.4326 75.9175C57.3721 75.8799 57.3188 75.8303 57.2773 75.771L55.9849 73.9181C55.9551 73.8756 55.9326 73.8295 55.9175 73.7811C55.9023 73.7333 55.8945 73.6833 55.8945 73.6328V65.8524C55.8945 65.7197 55.9482 65.5923 56.0439 65.4965L57.3857 64.1584ZM68.8467 64.1545C68.9478 64.0557 69.0864 64 69.231 64H75.4619C75.6147 64 75.7524 64.0609 75.8506 64.1586C75.9429 64.251 76 64.3762 76 64.5143V65.4229C76 65.5724 75.9331 65.707 75.8262 65.801C75.7305 65.8855 75.6025 65.9371 75.4619 65.9371H70.0693C69.9707 65.9371 69.875 65.963 69.7925 66.0106C69.7471 66.0366 69.7056 66.0691 69.6694 66.1074L69.645 66.1333C69.6191 66.1611 69.5962 66.1914 69.5771 66.2235C69.5581 66.2557 69.5425 66.2897 69.5308 66.325C69.5215 66.3534 69.5151 66.3827 69.5112 66.4126C69.5083 66.434 69.5068 66.4556 69.5068 66.4773V68.4572C69.5068 68.7412 69.748 68.9714 70.0449 68.9714H73.1123C73.1611 68.9714 73.208 68.9775 73.2524 68.9891C73.3003 69.0015 73.3457 69.0199 73.3872 69.0436C73.5449 69.1333 73.6504 69.2977 73.6504 69.4857V70.3943C73.6504 70.6783 73.4092 70.9086 73.1123 70.9086H70.0449C69.9053 70.9086 69.7783 70.9595 69.6826 71.043C69.6221 71.0958 69.5742 71.1619 69.5439 71.2362C69.52 71.2941 69.5068 71.3571 69.5068 71.4229V73.1543C69.5068 73.255 69.5381 73.3534 69.5957 73.4374L69.8677 73.8315C69.9673 73.976 70.1362 74.0629 70.3169 74.0629H75.4619C75.6729 74.0629 75.8555 74.179 75.9438 74.3479C75.98 74.4169 76 74.4948 76 74.5771V75.4857C76 75.5616 75.9829 75.6337 75.9521 75.6985C75.9253 75.7544 75.8887 75.8051 75.8438 75.8481C75.7466 75.9419 75.6113 76 75.4619 76H69.2378C69.0586 76 68.8911 75.9147 68.791 75.7725L67.4282 73.8329C67.3687 73.7482 67.3369 73.6483 67.3369 73.5461V65.8384C67.3369 65.7451 67.3633 65.6543 67.4126 65.5753C67.4341 65.5405 67.46 65.5081 67.4902 65.4786L68.8467 64.1545Z" fill="#5936D2"/>
</svg>
